HIERARCHY
ROOT hip
{
	OFFSET 0.000000 0.000000 0.000000 
	CHANNELS 6 Xposition Yposition Zposition Xrotation Zrotation Yrotation
	JOINT abdomen
	{
		OFFSET 0.000000 3.402643 0.000000 
		CHANNELS 3 Xrotation Zrotation Yrotation
		JOINT chest
		{
			OFFSET 0.000000 8.438565 -0.680529 
			CHANNELS 3 Xrotation Zrotation Yrotation
			JOINT neck
			{
				OFFSET 0.000000 10.207942 -0.272212 
				CHANNELS 3 Xrotation Zrotation Yrotation
				JOINT head
				{
					OFFSET 0.000000 3.130431 0.000000 
					CHANNELS 3 Xrotation Zrotation Yrotation
					End Site
					{
						OFFSET 0.000000 3.130435 0.000000 
					}
				}
			}
			JOINT lCollar
			{
				OFFSET 3.470700 6.669187 -0.816635 
				CHANNELS 3 Yrotation Zrotation Xrotation
				JOINT lShldr
				{
					OFFSET 3.198488 0.000000 0.000000 
					CHANNELS 3 Zrotation Yrotation Xrotation
					JOINT lForeArm
					{
						OFFSET 10.139888 0.000000 0.000000 
						CHANNELS 3 Yrotation Zrotation Xrotation
						JOINT lHand
						{
							OFFSET 8.370511 0.000000 0.000000 
							CHANNELS 3 Zrotation Yrotation Xrotation
							End Site
							{
								OFFSET 4.083176 0.000000 0.000000 
							}
						}
					}
				}
			}
			JOINT rCollar
			{
				OFFSET -3.470700 6.669187 -0.816635 
				CHANNELS 3 Yrotation Zrotation Xrotation
				JOINT rShldr
				{
					OFFSET -3.198488 0.000000 0.000000 
					CHANNELS 3 Zrotation Yrotation Xrotation
					JOINT rForeArm
					{
						OFFSET -10.139888 0.000000 0.000000 
						CHANNELS 3 Yrotation Zrotation Xrotation
						JOINT rHand
						{
							OFFSET -8.370511 0.000000 0.000000 
							CHANNELS 3 Zrotation Yrotation Xrotation
							End Site
							{
								OFFSET -4.083176 0.000000 0.000000 
							}
						}
					}
				}
			}
		}
	}
	JOINT lThigh
	{
		OFFSET 5.308129 -1.633274 1.361059 
		CHANNELS 3 Xrotation Zrotation Yrotation
		JOINT lShin
		{
			OFFSET -2.041588 -20.007561 0.000000 
			CHANNELS 3 Xrotation Zrotation Yrotation
			JOINT lFoot
			{
				OFFSET 0.000000 -19.190928 -1.224953 
				CHANNELS 3 Xrotation Yrotation Zrotation
				End Site
				{
					OFFSET 0.000000 -2.449906 4.627600 
				}
			}
		}
	}
	JOINT rThigh
	{
		OFFSET -5.308129 -1.633274 1.361059 
		CHANNELS 3 Xrotation Zrotation Yrotation
		JOINT rShin
		{
			OFFSET 2.041588 -20.007561 0.000000 
			CHANNELS 3 Xrotation Zrotation Yrotation
			JOINT rFoot
			{
				OFFSET 0.000000 -19.190928 -1.224953 
				CHANNELS 3 Xrotation Yrotation Zrotation
				End Site
				{
					OFFSET 0.000000 -2.449906 4.627600 
				}
			}
		}
	}
}
MOTION
Frames: 13
Frame Time: 0.016667
131.272232 5.942053 -37.666023 125.722443 33.079319 -127.761177 57.614708 10.802358 2.588058 -20.839844 0.000000 0.000000 -0.901009 16.107899 13.252187 8.603792 -1.684224 0.126603 -4.754609 -0.109183 -0.002653 -55.863533 -1.373488 -9.471779 -76.547493 -9.233011 5.696260 -169.801208 -172.847351 -183.394730 4.754609 0.109183 -0.002672 62.777199 -27.925022 -7.562815 62.631046 20.593851 20.058758 146.253448 138.345444 188.442429 -80.282013 45.467968 0.301726 97.527977 -8.701786 -6.482725 19.293997 -0.636730 2.347466 -87.670784 -23.827093 2.564917 73.272339 2.802086 1.001056 7.144408 -3.555803 5.554578 
129.624924 6.971810 -36.535122 132.009720 28.089586 -125.531570 57.093971 8.512617 -0.217201 -20.839844 0.000000 0.000000 0.210858 19.624077 13.989762 8.603792 -1.684224 0.126603 -4.754609 -0.109183 -0.002653 -45.534164 -3.483955 -9.689711 -97.808640 -12.652237 3.301054 -166.225937 -178.844589 -186.648697 4.754609 0.109183 -0.002672 49.447395 -23.517885 -9.963206 87.803444 18.183645 6.090589 140.566727 144.682144 194.560211 -96.445496 48.393295 -4.698557 87.192474 -13.426882 -3.614410 17.173449 1.204886 3.677661 -90.936073 -24.765524 5.637502 50.926304 1.181401 2.663293 19.048403 -0.348229 10.693727 
127.763588 8.776441 -35.549290 137.653290 21.646357 -124.184700 57.778778 6.191155 -3.701358 -20.839844 0.000000 0.000000 1.437399 21.669527 15.217768 8.603792 -1.684224 0.126603 -4.754609 -0.109183 -0.002653 -33.534138 -5.075541 -11.134411 -110.732246 -14.435333 0.982650 -162.389877 -184.838699 -190.002350 4.754609 0.109183 -0.002672 35.405529 -12.258338 -15.213204 99.585136 9.937863 2.291167 133.105789 149.839050 196.704208 -103.831039 50.465080 -5.957560 67.844208 -18.343885 1.996971 12.859284 0.188993 3.914443 -89.679680 -25.751276 12.195548 24.635071 -0.243842 6.788261 27.015980 -3.259743 16.615152 
125.341927 11.242551 -34.444447 143.322845 13.299307 -122.499413 59.445984 4.641178 -8.212751 -20.839844 0.000000 0.000000 3.629716 22.855789 16.557436 8.603792 -1.684224 0.126603 -4.754609 -0.109183 -0.002653 -23.623503 -2.801650 -12.264224 -115.845444 -16.020267 0.638357 -159.140396 -186.690445 -193.157425 4.754609 0.109183 -0.002672 18.662609 2.012593 -23.298819 101.555099 3.098649 0.857036 124.680733 156.728134 199.202454 -100.516808 51.063854 -1.309876 44.972767 -20.046751 11.034194 9.094485 -1.751945 -0.428529 -83.029724 -31.082613 12.407997 -3.648367 -1.502630 5.229650 25.676519 -6.396430 16.854706 
122.307823 14.105546 -32.989700 149.547699 3.282813 -122.033798 61.961845 2.934040 -10.783527 -20.839844 0.000000 0.000000 7.500098 23.745497 16.032961 8.603792 -1.684224 0.126603 -4.754609 -0.109183 -0.002653 -21.367765 1.775135 -11.545959 -118.726395 -17.006636 0.804944 -157.699615 -185.956619 -195.251694 4.754609 0.109183 -0.002672 3.781071 12.855723 -32.254768 102.225777 -1.054545 -3.567571 118.004570 161.552948 205.758530 -94.818459 52.290356 3.516417 32.561089 -19.380535 18.281363 5.277424 -1.165674 -0.935947 -85.770241 -31.357306 13.564869 -3.579865 -6.175435 4.088492 12.345854 -11.605963 17.692911 
119.134781 16.951691 -31.487471 156.397018 -7.640159 -122.820145 63.989002 1.538237 -11.482916 -20.839844 0.000000 0.000000 13.665035 24.691462 13.853679 8.603792 -1.684224 0.126603 -4.754609 -0.109183 -0.002653 -25.487484 7.617460 -9.690392 -124.728363 -16.959854 0.829047 -156.637665 -184.842911 -198.301529 4.754609 0.109183 -0.002672 -4.045286 20.887672 -38.483463 105.931511 -2.858093 -6.623351 116.953682 163.799774 210.242645 -94.100906 54.071716 2.065485 38.225597 -19.734116 17.138411 0.855436 2.017635 2.549571 -83.554329 -31.455040 11.657108 -3.495106 -9.144120 0.616122 9.707712 -14.670700 14.279900 
115.672104 19.763611 -29.728807 -16.041773 -158.281357 56.556774 64.597870 1.964949 -10.867749 -20.839844 0.000000 0.000000 20.852806 25.829304 10.416677 8.603792 -1.684224 0.126603 -4.754609 -0.109183 -0.002653 -31.149324 12.883447 -7.545531 -130.426361 -17.204262 2.782861 -156.279068 -181.937653 -204.257156 4.754609 0.109183 -0.002672 -5.143528 29.064747 -40.597649 108.885338 -2.112379 -6.311851 121.138618 165.058701 208.733414 -96.444893 52.753582 -2.524495 54.248817 -18.134995 10.102715 -0.587978 4.882502 3.670041 -77.922058 -32.927547 9.533699 -3.514785 -11.304832 -2.898642 12.776648 -17.960625 10.321812 
111.974976 22.273647 -27.783709 -7.856871 -148.698654 55.049202 64.366920 3.512334 -8.896529 -20.839844 0.000000 0.000000 26.815496 27.457960 6.472196 8.603792 -1.684224 0.126603 -4.754609 -0.109183 -0.002653 -32.928867 15.364852 -5.668763 -133.628128 -18.334204 4.029069 -158.155945 -179.588272 -209.415756 4.754609 0.109183 -0.002672 -0.645138 34.879276 -37.965393 110.604340 0.363442 -7.141304 126.793404 166.473602 207.800858 -97.154991 49.666157 -4.478834 71.177826 -15.357614 4.093580 -0.266151 5.807918 4.319460 -71.997826 -35.047455 8.634784 -3.378374 -12.085874 -3.704809 14.921846 -20.178169 9.995520 
108.211967 24.376074 -25.741554 0.876477 -140.588379 52.089310 63.791801 5.333517 -6.163484 -20.839844 0.000000 0.000000 30.010891 29.549919 2.566815 8.603792 -1.684224 0.126603 -4.754609 -0.109183 -0.002653 -28.606394 13.891492 -4.605542 -133.841721 -19.942266 6.793492 -162.710114 -177.289536 -215.760635 4.754609 0.109183 -0.002672 5.850829 36.213120 -33.258335 111.587616 2.465818 -8.426046 130.342026 167.586777 207.952454 -96.504044 46.840546 -4.137710 85.659523 -13.475125 0.455172 -1.329079 6.180790 5.687854 -67.340454 -37.420429 6.783556 -3.622905 -11.065468 -3.777618 13.787657 -18.807627 10.473363 
104.367737 26.050453 -23.616142 10.159634 -133.791779 47.640110 62.892677 6.843700 -3.799746 -20.839844 0.000000 0.000000 30.060179 31.452297 -1.207126 8.603792 -1.684224 0.126603 -4.754609 -0.109183 -0.002653 -21.301088 8.674964 -4.632302 -131.655228 -21.892092 11.156943 -166.361755 -173.585297 -222.195694 4.754609 0.109183 -0.002672 11.025355 35.523251 -29.586908 111.496895 3.592601 -8.533669 131.796951 167.995224 207.268372 -96.269112 44.882584 -3.354338 97.077652 -12.442589 -1.686887 -4.597511 6.809900 6.112042 -63.879658 -40.142757 4.872777 -4.091992 -9.213376 -4.317753 12.456107 -17.583241 9.772902 
100.427490 27.241114 -21.364561 20.252630 -127.817238 41.640007 61.711922 7.586615 -2.836061 -20.839844 0.000000 0.000000 27.571581 32.308216 -4.856820 8.603792 -1.684224 0.126603 -4.754609 -0.109183 -0.002653 -17.622042 2.500019 -2.951157 -131.014084 -25.742069 9.106137 -171.332642 -175.636093 -223.983154 4.754609 0.109183 -0.002672 14.594275 35.593449 -27.242477 109.668938 4.259796 -7.808196 131.592728 167.793701 206.067337 -97.567841 43.144272 -3.763215 104.727333 -10.723657 -1.677031 -8.169291 8.816706 6.040719 -61.292820 -43.345909 3.466976 -4.382358 -7.601888 -5.101710 12.210530 -17.590731 8.392848 
96.368736 27.863781 -18.961796 32.319500 -122.377716 32.741474 60.694275 7.298867 -2.953989 -20.839844 0.000000 0.000000 23.928116 31.690050 -8.136730 8.603792 -1.684224 0.126603 -4.754609 -0.109183 -0.002653 -15.118857 -3.712659 -0.029908 -130.747665 -31.340210 6.787328 -174.462845 -187.016861 -228.686508 4.754609 0.109183 -0.002672 17.780787 36.905697 -25.189079 105.594887 5.012167 -6.229447 129.627426 164.996216 204.968842 -99.952934 42.398666 -5.852695 107.927971 -8.235359 0.147033 -10.617207 11.224056 6.425160 -59.676655 -46.708118 2.364163 -4.560124 -6.531879 -5.706336 12.799932 -17.525942 7.339288 
92.294655 27.911274 -16.626453 48.254631 -117.879944 18.974791 60.202675 6.292955 -3.177816 -20.839844 0.000000 0.000000 20.561485 29.823597 -10.807819 8.603792 -1.684224 0.126603 -4.754609 -0.109183 -0.002653 -10.573626 -10.390654 0.951368 -128.608566 -36.489494 10.088314 -173.058136 -196.838730 -237.852859 4.754609 0.109183 -0.002672 21.444963 38.819778 -22.740120 99.499329 5.902659 -3.522544 126.828560 160.570282 203.437836 -101.040710 42.800961 -8.099774 105.828415 -6.086406 2.481598 -11.545061 13.049091 6.257840 -60.531834 -49.293015 2.110688 -3.534726 -6.014471 -5.778823 14.644532 -16.287882 8.556475 
